<svg width="21" height="21" viewBox="0 0 21 21" fill="none" xmlns="http://www.w3.org/2000/svg">
<g opacity="0.5">
<path d="M6.14798 8.34184C5.86737 8.03572 5.38267 8.01021 5.07655 8.29082C4.77043 8.57143 4.74492 9.05613 5.02553 9.36225L8.87757 13.5459C9.03063 13.699 9.2092 13.801 9.41328 13.801C9.41328 13.801 9.41328 13.801 9.43879 13.801C9.64288 13.801 9.84696 13.7245 9.97451 13.5714L19.7194 3.85204C20.0255 3.54592 20.0255 3.06123 19.7194 2.78062C19.4133 2.5 18.9286 2.47449 18.648 2.78062L9.4643 11.9388L6.14798 8.34184Z" fill="white"/>
<path d="M19.5408 9.38775C19.1071 9.38775 18.7755 9.71938 18.7755 10.1531C18.7755 14.8979 14.898 18.7755 10.1531 18.7755C5.40816 18.7755 1.53061 14.8979 1.53061 10.1531C1.53061 5.40816 5.40816 1.53061 10.1531 1.53061C10.5867 1.53061 10.9184 1.19898 10.9184 0.765306C10.9184 0.331633 10.5867 0 10.1531 0C4.56633 0 0 4.56632 0 10.1531C0 15.7398 4.56633 20.3061 10.1531 20.3061C15.7398 20.3061 20.3061 15.7398 20.3061 10.1531C20.3061 9.71938 19.9745 9.38775 19.5408 9.38775Z" fill="white"/>
</g>
</svg>
