<svg width="35" height="34" viewBox="0 0 35 34" fill="none" xmlns="http://www.w3.org/2000/svg">
<path d="M29.4127 3.11258C29.4127 2.78589 29.6664 2.52102 29.9794 2.52102C30.2923 2.52102 30.546 2.78589 30.546 3.11258C30.546 3.43928 30.2923 3.70415 29.9794 3.70415C29.6664 3.70415 29.4127 3.43928 29.4127 3.11258ZM5.33039 29.6107C5.10911 29.3797 4.75042 29.3797 4.52914 29.6107L4.07978 30.0798L3.63042 29.6107C3.40914 29.3797 3.05044 29.3797 2.82916 29.6107C2.60788 29.8417 2.60788 30.2161 2.82916 30.4472L3.27852 30.9163L2.82916 31.3854C2.60788 31.6164 2.60788 31.9908 2.82916 32.2219C2.9398 32.3374 3.08487 32.3952 3.22979 32.3952C3.37471 32.3952 3.51978 32.3374 3.63042 32.2219L4.07978 31.7527L4.52914 32.2219C4.63978 32.3374 4.78484 32.3952 4.92977 32.3952C5.07469 32.3952 5.21975 32.3374 5.33039 32.2219C5.55168 31.9908 5.55168 31.6164 5.33039 31.3854L4.88103 30.9163L5.33039 30.4472C5.55168 30.2161 5.55168 29.8418 5.33039 29.6107ZM34.4724 9.40006C33.3429 6.45317 28.7803 6.11405 27.6675 6.07545C25.4685 3.82276 23.7701 2.95064 23.0895 2.66447L22.5959 0.603006C22.5201 0.28637 22.2119 0.091744 21.9091 0.172641C21.6053 0.251763 21.4205 0.572984 21.4969 0.890213L22.0636 3.25648C22.1117 3.45924 22.2622 3.62133 22.4548 3.68079C22.4737 3.68655 24.3595 4.29395 27.0291 7.08053C27.1353 7.19144 27.2792 7.25356 27.4291 7.25385C28.8208 7.25563 32.6092 7.72386 33.42 9.83989C33.5084 10.0708 33.7214 10.2117 33.9461 10.2117C34.0164 10.2117 34.0878 10.1978 34.1563 10.1692C34.4469 10.0477 34.5886 9.70368 34.4724 9.40006ZM8.28042 7.08023C10.9526 4.29054 12.5797 3.67842 12.5924 3.67383C12.7762 3.60965 12.9161 3.45229 12.9626 3.25619L13.5292 0.889917C13.6056 0.572689 13.4207 0.251615 13.117 0.172345C12.8121 0.0908568 12.5056 0.285926 12.4302 0.602711L11.9321 2.68222C11.3173 2.97889 9.80049 3.85559 7.6418 6.07501C6.49573 6.11168 1.68692 6.44326 0.5536 9.39991C0.437435 9.70354 0.579099 10.0475 0.869512 10.1691C0.93822 10.1978 1.00962 10.2117 1.07988 10.2117C1.30457 10.2117 1.51763 10.0708 1.60617 9.8396C2.41692 7.72297 6.41002 7.25519 7.88036 7.25356C8.03024 7.25326 8.17417 7.19115 8.28042 7.08023ZM30.0182 16.6071L28.0354 18.7891H20.608C19.9556 18.7891 19.359 18.366 19.0795 17.7079L18.0734 13.8994C18.0059 13.6426 17.7823 13.4649 17.5273 13.4649C17.2723 13.4649 17.0486 13.6425 16.9812 13.8994L15.9751 17.7079C15.6956 18.3659 15.099 18.7891 14.4467 18.7891H7.55666L5.57448 16.6074C5.35972 16.3702 5.0006 16.3602 4.77323 16.5852C4.54628 16.81 4.53693 17.1846 4.75226 17.4214L6.90217 19.7877C7.00898 19.9056 7.15787 19.9723 7.31328 19.9723H14.4468C15.5668 19.9723 16.5823 19.251 17.0333 18.1346C17.0427 18.1109 17.0505 18.0866 17.0571 18.0618L17.5275 16.2816L17.9978 18.0618C18.0044 18.0866 18.0122 18.1109 18.0216 18.1346C18.4726 19.251 19.4881 19.9723 20.6081 19.9723H28.279C28.4345 19.9723 28.5833 19.9056 28.6901 19.788L30.8405 17.4217C31.0559 17.1845 31.0464 16.8102 30.8196 16.5852C30.5926 16.3599 30.2329 16.3704 30.0182 16.6071ZM8.98379 22.8216C9.03408 22.6639 9.01864 22.4917 8.94171 22.3467C8.86422 22.2014 8.73205 22.097 8.57707 22.0587C7.88362 21.8872 6.34202 21.3037 6.0033 20.5965C5.87935 20.3371 5.59219 20.2114 5.3287 20.2961C5.06364 20.3819 4.89704 20.6555 4.93529 20.9426C4.95683 21.1041 5.48042 24.9333 7.09341 27.9328L8.32972 30.4682V33.2842C8.32972 33.6109 8.58316 33.8757 8.89638 33.8757C9.2096 33.8757 9.46304 33.6109 9.46304 33.2842V30.3263C9.46304 30.233 9.44207 30.1412 9.40156 30.0581L8.09286 27.3751C7.21241 25.7374 6.67012 23.7919 6.36908 22.4401C6.87822 22.7296 7.41103 22.9323 7.79451 23.058C7.66772 24.9598 9.51333 26.9514 9.74566 27.1938C9.96694 27.4248 10.3256 27.4248 10.5469 27.1938C10.7682 26.9628 10.7682 26.5884 10.5469 26.3573C10.0236 25.8103 8.61192 23.9871 8.98379 22.8216ZM30.1754 20.3044C29.9054 20.2013 29.6021 20.3259 29.4726 20.595C29.1683 21.2305 27.5325 21.831 26.4683 22.0543C26.309 22.0879 26.1711 22.1909 26.0892 22.3376C26.0079 22.4844 25.9908 22.6606 26.0422 22.8214C26.4147 23.9878 25.0395 25.7692 24.4784 26.3572C24.2575 26.5885 24.2581 26.963 24.4795 27.1937C24.7008 27.4239 25.0589 27.4253 25.2802 27.1934C25.5115 26.9522 27.341 24.9777 27.233 23.0839C27.6935 22.9606 28.3397 22.7563 28.9458 22.4566C28.5318 23.8142 27.865 25.7353 26.9956 27.3525L25.4146 30.0143C25.3587 30.1079 25.3294 30.2158 25.3294 30.3259V33.2837C25.3294 33.6104 25.5828 33.8753 25.896 33.8753C26.2092 33.8753 26.4627 33.6104 26.4627 33.2837V30.4943L27.9711 27.9535C29.5803 24.9605 30.4912 21.1618 30.5294 21.0014C30.5987 20.7092 30.4466 20.4087 30.1754 20.3044ZM17.3963 31.8036C17.0833 31.8036 16.8296 32.0685 16.8296 32.3952C16.8296 32.7219 17.0833 32.9868 17.3963 32.9868C17.7092 32.9868 17.9629 32.7219 17.9629 32.3952C17.9629 32.0685 17.7092 31.8036 17.3963 31.8036ZM10.6097 6.82955C10.5421 7.14841 10.7348 7.46445 11.0402 7.53514L15.9791 8.68101L16.9956 9.74228C17.1063 9.85779 17.2513 9.91561 17.3963 9.91561C17.5412 9.91561 17.6863 9.85779 17.7969 9.74228L18.8135 8.68101L23.7523 7.53514C24.0578 7.4643 24.2504 7.14841 24.1829 6.82955C24.1153 6.51011 23.8121 6.31075 23.5067 6.3804L18.4068 7.56354C18.3017 7.58779 18.2053 7.64296 18.129 7.72267L17.3963 8.48757L16.6636 7.72267C16.5872 7.64296 16.4909 7.58779 16.3858 7.56354L11.2858 6.3804C10.9831 6.31134 10.6777 6.51011 10.6097 6.82955ZM17.3963 25.2964C17.083 25.2964 16.8296 25.5612 16.8296 25.8879V30.6205C16.8296 30.9472 17.083 31.212 17.3963 31.212C17.7095 31.212 17.9629 30.9472 17.9629 30.6205V25.8879C17.9629 25.5612 17.7095 25.2964 17.3963 25.2964Z" fill="#F1E8E8"/>
</svg>
