<svg width="35" height="34" viewBox="0 0 35 34" fill="none" xmlns="http://www.w3.org/2000/svg">
<path d="M29.4126 3.11258C29.4126 2.78589 29.6664 2.52102 29.9793 2.52102C30.2922 2.52102 30.546 2.78589 30.546 3.11258C30.546 3.43928 30.2922 3.70415 29.9793 3.70415C29.6664 3.70415 29.4126 3.43928 29.4126 3.11258ZM5.33033 29.6107C5.10905 29.3797 4.75036 29.3797 4.52908 29.6107L4.07972 30.0798L3.63036 29.6107C3.40908 29.3797 3.05038 29.3797 2.8291 29.6107C2.60782 29.8417 2.60782 30.2161 2.8291 30.4472L3.27846 30.9163L2.8291 31.3854C2.60782 31.6164 2.60782 31.9908 2.8291 32.2219C2.93974 32.3374 3.08481 32.3952 3.22973 32.3952C3.37465 32.3952 3.51972 32.3374 3.63036 32.2219L4.07972 31.7527L4.52908 32.2219C4.63972 32.3374 4.78478 32.3952 4.92971 32.3952C5.07463 32.3952 5.21969 32.3374 5.33033 32.2219C5.55161 31.9908 5.55161 31.6164 5.33033 31.3854L4.88097 30.9163L5.33033 30.4472C5.55161 30.2161 5.55161 29.8418 5.33033 29.6107ZM34.4723 9.40006C33.3428 6.45317 28.7803 6.11405 27.6675 6.07545C25.4684 3.82276 23.77 2.95064 23.0894 2.66447L22.5959 0.603006C22.5201 0.28637 22.2118 0.091744 21.9091 0.172641C21.6052 0.251763 21.4205 0.572984 21.4968 0.890213L22.0635 3.25648C22.1117 3.45924 22.2621 3.62133 22.4548 3.68079C22.4736 3.68655 24.3595 4.29395 27.029 7.08053C27.1352 7.19144 27.2792 7.25356 27.4291 7.25385C28.8208 7.25563 32.6092 7.72386 33.4199 9.83989C33.5083 10.0708 33.7214 10.2117 33.9461 10.2117C34.0163 10.2117 34.0877 10.1978 34.1563 10.1692C34.4468 10.0477 34.5885 9.70368 34.4723 9.40006ZM8.28036 7.08023C10.9526 4.29054 12.5796 3.67842 12.5924 3.67383C12.7761 3.60965 12.9161 3.45229 12.9625 3.25619L13.5292 0.889917C13.6055 0.572689 13.4207 0.251615 13.1169 0.172345C12.8121 0.0908568 12.5055 0.285926 12.4301 0.602711L11.9321 2.68222C11.3172 2.97889 9.80043 3.85559 7.64174 6.07501C6.49567 6.11168 1.68686 6.44326 0.553539 9.39991C0.437374 9.70354 0.579038 10.0475 0.869451 10.1691C0.938159 10.1978 1.00956 10.2117 1.07982 10.2117C1.3045 10.2117 1.51757 10.0708 1.60611 9.8396C2.41686 7.72297 6.40996 7.25519 7.8803 7.25356C8.03018 7.25326 8.17411 7.19115 8.28036 7.08023ZM30.0181 16.6071L28.0354 18.7891H20.6079C19.9555 18.7891 19.359 18.366 19.0795 17.7079L18.0734 13.8994C18.0058 13.6426 17.7822 13.4649 17.5272 13.4649C17.2723 13.4649 17.0486 13.6425 16.9811 13.8994L15.975 17.7079C15.6955 18.3659 15.099 18.7891 14.4466 18.7891H7.5566L5.57442 16.6074C5.35966 16.3702 5.00054 16.3602 4.77317 16.5852C4.54622 16.81 4.53687 17.1846 4.7522 17.4214L6.9021 19.7877C7.00892 19.9056 7.15781 19.9723 7.31322 19.9723H14.4467C15.5667 19.9723 16.5822 19.251 17.0333 18.1346C17.0426 18.1109 17.0504 18.0866 17.0571 18.0618L17.5274 16.2816L17.9977 18.0618C18.0044 18.0866 18.0122 18.1109 18.0215 18.1346C18.4726 19.251 19.488 19.9723 20.608 19.9723H28.2789C28.4344 19.9723 28.5832 19.9056 28.69 19.788L30.8405 17.4217C31.0558 17.1845 31.0463 16.8102 30.8195 16.5852C30.5926 16.3599 30.2329 16.3704 30.0181 16.6071ZM8.98373 22.8216C9.03402 22.6639 9.01858 22.4917 8.94165 22.3467C8.86416 22.2014 8.73199 22.097 8.57701 22.0587C7.88356 21.8872 6.34196 21.3037 6.00324 20.5965C5.87928 20.3371 5.59213 20.2114 5.32863 20.2961C5.06358 20.3819 4.89698 20.6555 4.93523 20.9426C4.95676 21.1041 5.48036 24.9333 7.09335 27.9328L8.32966 30.4682V33.2842C8.32966 33.6109 8.5831 33.8757 8.89632 33.8757C9.20954 33.8757 9.46298 33.6109 9.46298 33.2842V30.3263C9.46298 30.233 9.44201 30.1412 9.4015 30.0581L8.0928 27.3751C7.21235 25.7374 6.67006 23.7919 6.36902 22.4401C6.87816 22.7296 7.41097 22.9323 7.79445 23.058C7.66766 24.9598 9.51327 26.9514 9.7456 27.1938C9.96688 27.4248 10.3256 27.4248 10.5469 27.1938C10.7681 26.9628 10.7681 26.5884 10.5469 26.3573C10.0235 25.8103 8.61186 23.9871 8.98373 22.8216ZM30.1754 20.3044C29.9054 20.2013 29.602 20.3259 29.4726 20.595C29.1683 21.2305 27.5325 21.831 26.4683 22.0543C26.3089 22.0879 26.1711 22.1909 26.0892 22.3376C26.0079 22.4844 25.9907 22.6606 26.0422 22.8214C26.4146 23.9878 25.0394 25.7692 24.4783 26.3572C24.2575 26.5885 24.258 26.963 24.4794 27.1937C24.7007 27.4239 25.0589 27.4253 25.2801 27.1934C25.5115 26.9522 27.3409 24.9777 27.233 23.0839C27.6934 22.9606 28.3397 22.7563 28.9457 22.4566C28.5318 23.8142 27.865 25.7353 26.9956 27.3525L25.4146 30.0143C25.3586 30.1079 25.3293 30.2158 25.3293 30.3259V33.2837C25.3293 33.6104 25.5827 33.8753 25.896 33.8753C26.2092 33.8753 26.4626 33.6104 26.4626 33.2837V30.4943L27.9711 27.9535C29.5802 24.9605 30.4911 21.1618 30.5294 21.0014C30.5987 20.7092 30.4465 20.4087 30.1754 20.3044ZM17.3962 31.8036C17.0833 31.8036 16.8295 32.0685 16.8295 32.3952C16.8295 32.7219 17.0833 32.9868 17.3962 32.9868C17.7091 32.9868 17.9629 32.7219 17.9629 32.3952C17.9629 32.0685 17.7091 31.8036 17.3962 31.8036ZM10.6096 6.82955C10.542 7.14841 10.7347 7.46445 11.0401 7.53514L15.979 8.68101L16.9956 9.74228C17.1062 9.85779 17.2513 9.91561 17.3962 9.91561C17.5411 9.91561 17.6862 9.85779 17.7968 9.74228L18.8134 8.68101L23.7523 7.53514C24.0577 7.4643 24.2504 7.14841 24.1828 6.82955C24.1152 6.51011 23.8121 6.31075 23.5066 6.3804L18.4067 7.56354C18.3016 7.58779 18.2053 7.64296 18.1289 7.72267L17.3962 8.48757L16.6635 7.72267C16.5872 7.64296 16.4908 7.58779 16.3857 7.56354L11.2858 6.3804C10.983 6.31134 10.6776 6.51011 10.6096 6.82955ZM17.3962 25.2964C17.083 25.2964 16.8295 25.5612 16.8295 25.8879V30.6205C16.8295 30.9472 17.083 31.212 17.3962 31.212C17.7094 31.212 17.9629 30.9472 17.9629 30.6205V25.8879C17.9629 25.5612 17.7094 25.2964 17.3962 25.2964Z" fill="#F1E8E8"/>
</svg>
