<svg width="28" height="36" viewBox="0 0 28 36" fill="none" xmlns="http://www.w3.org/2000/svg">
<path d="M2.91576 29.7893L2.47168 30.2334L2.91576 30.6775C3.13444 30.8961 3.13444 31.2506 2.91576 31.4693C2.80642 31.5786 2.66306 31.6334 2.51984 31.6334C2.37662 31.6334 2.23326 31.5786 2.12392 31.4693L1.67984 31.0252L1.23576 31.4693C1.12642 31.5786 0.983057 31.6334 0.839837 31.6334C0.696617 31.6334 0.553257 31.5786 0.443917 31.4693C0.225237 31.2506 0.225237 30.8961 0.443917 30.6775L0.887997 30.2334L0.443917 29.7893C0.225237 29.5706 0.225237 29.2161 0.443917 28.9975C0.662597 28.7788 1.01708 28.7788 1.23576 28.9975L1.67984 29.4415L2.12392 28.9975C2.3426 28.7788 2.69708 28.7788 2.91576 28.9975C3.13444 29.2161 3.13458 29.5706 2.91576 29.7893ZM1.51506 13.4334C1.82432 13.4334 2.07506 13.1826 2.07506 12.8734C2.07506 12.5641 1.82432 12.3134 1.51506 12.3134C1.2058 12.3134 0.955057 12.5641 0.955057 12.8734C0.955057 13.1826 1.2058 13.4334 1.51506 13.4334ZM10.6048 32.2415C10.6048 33.1942 9.82994 33.9691 8.87724 33.9691C7.92454 33.9691 7.14964 33.1942 7.14964 32.2415C7.14964 31.2894 7.92454 30.5145 8.87724 30.5145C9.82994 30.5145 10.6048 31.2894 10.6048 32.2415ZM9.48484 32.2415C9.48484 31.9068 9.21254 31.6345 8.87724 31.6345C8.54194 31.6345 8.26964 31.9068 8.26964 32.2415C8.26964 32.5768 8.54194 32.8491 8.87724 32.8491C9.21254 32.8491 9.48484 32.5767 9.48484 32.2415ZM27.1598 33.8903V35.2734C27.1598 35.5829 26.9094 35.8334 26.5998 35.8334C26.2903 35.8334 26.0398 35.5829 26.0398 35.2734V34.312C24.8286 33.9232 23.6456 33.1811 22.74 32.2327C21.6991 31.1467 21.0413 29.9755 20.7359 29.3629C20.6189 29.3924 20.5026 29.4215 20.3907 29.447C18.5078 29.8544 14.8848 30.4298 11.7064 29.7276C9.4784 29.2332 6.73636 27.8054 3.55626 25.4833C3.38616 25.358 2.97708 25.2011 2.67846 25.0868C2.29402 24.9397 2.08626 24.8571 1.94066 24.7406C1.65198 24.5142 1.48398 24.168 1.48398 23.7934V22.7236C1.48398 21.6304 4.71714 8.02587 5.10158 6.86751C5.23668 6.43925 5.66928 6.23471 5.75454 6.19873L6.19568 5.99699C7.10484 3.01205 9.88188 0.833374 13.1598 0.833374C17.1739 0.833374 20.4398 4.09929 20.4398 8.11337C20.4398 12.1275 17.1739 15.3934 13.1598 15.3934C12.3781 15.3934 11.6261 15.2663 10.9197 15.0371L11.3106 17.9802C12.4393 17.0521 13.8724 16.5134 15.3998 16.5134C16.8255 16.5134 18.187 16.9958 19.2895 17.8308C20.4279 16.3179 22.3119 15.3934 24.3598 15.3934C25.2091 15.3934 26.0321 15.5477 26.8049 15.8522C27.0932 15.9658 27.2342 16.2908 27.1211 16.5785C27.0074 16.8667 26.6813 17.0062 26.3947 16.8946C25.7527 16.6413 25.068 16.5134 24.3598 16.5134C22.6266 16.5134 21.0452 17.3034 20.1257 18.5869C20.5616 19.0562 20.9329 19.5914 21.2159 20.1846C21.3493 20.464 21.2306 20.7982 20.9517 20.9311C20.6717 21.0645 20.3375 20.9458 20.2052 20.6669C19.3264 18.8239 17.4402 17.6334 15.3998 17.6334C13.2566 17.6334 11.3327 18.9086 10.4976 20.8829C10.4073 21.0967 10.2001 21.2247 9.98184 21.2247C9.90904 21.2247 9.8347 21.2104 9.76358 21.1804C9.47868 21.0602 9.34582 20.7314 9.46608 20.4465C9.6884 19.921 9.97764 19.4392 10.3164 19.0029L9.72214 14.5278C7.46968 13.3158 5.92898 10.9519 5.88558 8.23013C4.9921 11.6774 2.62428 21.8951 2.60398 22.726V23.7934C2.60398 23.8229 2.61434 23.8459 2.63576 23.8623C2.68056 23.8886 2.91086 23.9765 3.07872 24.041C3.47688 24.1931 3.92796 24.3658 4.21846 24.5798C7.27116 26.8088 9.87264 28.1733 11.9486 28.6337C15.0286 29.3151 18.709 28.6644 20.1478 28.3532C21.5621 28.0316 23.6013 27.2785 23.6215 27.271C23.8889 27.172 24.1892 27.2902 24.3166 27.545C24.5463 28.0011 25.3508 29.2545 26.2995 29.5706C26.5927 29.6679 26.7513 29.9852 26.6533 30.2789C26.5756 30.5135 26.3569 30.6616 26.1223 30.6616C26.0638 30.6616 26.0041 30.6524 25.9451 30.6327C24.7999 30.2514 23.9587 29.1151 23.5639 28.4818C23.1558 28.6263 22.5138 28.846 21.8345 29.0533C22.1413 29.6375 22.7073 30.5807 23.5485 31.4591C24.4186 32.3691 25.5797 33.057 26.7358 33.3474C26.9854 33.4097 27.1598 33.6338 27.1598 33.8903ZM6.99984 8.11337C6.99984 11.5101 9.76316 14.2734 13.1598 14.2734C16.5565 14.2734 19.3198 11.5101 19.3198 8.11337C19.3198 4.71669 16.5565 1.95337 13.1598 1.95337C9.76316 1.95337 6.99984 4.71669 6.99984 8.11337ZM16.9699 26.6043C11.8949 27.6182 10.3621 24.7811 10.3008 24.6629C10.2275 24.5169 10.094 24.4097 9.9355 24.3703L7.6955 23.8103C7.39478 23.7343 7.09126 23.917 7.01678 24.2177C6.94132 24.5175 7.12402 24.8214 7.42418 24.8964L9.4378 25.4002C9.87852 26.0772 11.4098 27.9448 14.8918 27.9448C15.5792 27.9448 16.3432 27.872 17.1897 27.7026C17.4927 27.6418 17.6895 27.3471 17.6289 27.0436C17.5687 26.7405 17.2772 26.542 16.9699 26.6043ZM8.67984 8.11337C8.67984 5.64307 10.6895 3.63337 13.1598 3.63337C15.6301 3.63337 17.6398 5.64307 17.6398 8.11337C17.6398 10.5837 15.6301 12.5934 13.1598 12.5934C10.6895 12.5934 8.67984 10.5837 8.67984 8.11337ZM9.79984 8.11337C9.79984 9.96613 11.3071 11.4734 13.1598 11.4734C15.0126 11.4734 16.5198 9.96613 16.5198 8.11337C16.5198 6.26061 15.0126 4.75337 13.1598 4.75337C11.3071 4.75337 9.79984 6.26061 9.79984 8.11337ZM11.0839 9.39745L11.6481 8.83325C11.5434 8.61429 11.4798 8.37195 11.4798 8.11337C11.4798 7.85479 11.5434 7.61259 11.6481 7.39349L11.0839 6.82929C10.8652 6.61061 10.8652 6.25613 11.0839 6.03745C11.3026 5.81877 11.6571 5.81877 11.8758 6.03745L12.44 6.60165C12.6589 6.49693 12.9013 6.43337 13.1598 6.43337C13.4184 6.43337 13.6606 6.49693 13.8797 6.60165L14.4439 6.03745C14.6626 5.81877 15.0171 5.81877 15.2358 6.03745C15.4544 6.25613 15.4544 6.61061 15.2358 6.82929L14.6716 7.39349C14.7763 7.61245 14.8398 7.85479 14.8398 8.11337C14.8398 8.37195 14.7763 8.61415 14.6716 8.83325L15.2358 9.39745C15.4544 9.61613 15.4544 9.97061 15.2358 10.1893C15.1264 10.2986 14.9831 10.3534 14.8398 10.3534C14.6966 10.3534 14.5533 10.2986 14.4439 10.1893L13.8797 9.62509C13.6608 9.72981 13.4184 9.79337 13.1598 9.79337C12.9013 9.79337 12.6591 9.72981 12.44 9.62509L11.8758 10.1893C11.7664 10.2986 11.6231 10.3534 11.4798 10.3534C11.3366 10.3534 11.1933 10.2986 11.0839 10.1893C10.8652 9.97061 10.8652 9.61613 11.0839 9.39745Z" fill="#F1E8E8"/>
</svg>
